<svg preserveAspectRatio="none" overflow="visible" style="display: block;" width="40" height="40" viewBox="0 0 40 40" fill="none" xmlns="http://www.w3.org/2000/svg">
<g id="Mark">
<path id="piece &#194;&#183; teal" fill-rule="evenodd" clip-rule="evenodd" d="M5 3.33333H35V18.3333C35 22.3116 33.4196 26.1269 30.6066 28.9399C27.7936 31.753 23.9782 33.3333 20 33.3333C16.0218 33.3333 12.2064 31.753 9.3934 28.9399C6.58035 26.1269 5 22.3116 5 18.3333V3.33333ZM12.5 3.33333H27.5V17.5C27.5 19.4891 26.7098 21.3968 25.3033 22.8033C23.8968 24.2098 21.9891 25 20 25C18.0109 25 16.1032 24.2098 14.6967 22.8033C13.2902 21.3968 12.5 19.4891 12.5 17.5V3.33333Z" fill="#264653"/>
</g>
</svg>
