<svg preserveAspectRatio="none" overflow="visible" style="display: block;" width="22" height="28.3" viewBox="0 0 22 28.3" fill="none" xmlns="http://www.w3.org/2000/svg">
<g id="symbol" clip-path="url(#clip0_0_12)">
<path id="Vector" d="M9.67662 0.203597C7.21974 0.203597 4.86349 1.17959 3.12622 2.91686C1.38894 4.65414 0.412949 7.01039 0.412949 9.46727C0.412949 11.9241 1.38894 14.2804 3.12622 16.0177C4.86349 17.7549 7.21974 18.7309 9.67662 18.7309V0.203597Z" fill="#264653"/>
<path id="Vector_2" d="M21.8924 0.203597H12.9342C12.9342 2.57948 13.878 4.85805 15.558 6.53805C17.238 8.21805 19.5166 9.16187 21.8924 9.16187V0.203597Z" fill="#219EBC"/>
<path id="Vector_3" d="M12.8324 10.1799C15.2353 10.1799 17.5397 11.1344 19.2388 12.8335C20.9379 14.5326 21.8924 16.837 21.8924 19.2399C21.8924 21.6428 20.9379 23.9473 19.2388 25.6464C17.5397 27.3455 15.2353 28.3 12.8324 28.3V10.1799Z" fill="#2A9D8F"/>
<path id="Vector_4" d="M0.00575507 28.3V19.3417C2.38164 19.3417 4.66021 20.2855 6.34021 21.9655C8.02021 23.6455 8.96403 25.9241 8.96403 28.3H0.00575507Z" fill="#FFBE0B"/>
</g>
<defs>
<clipPath id="clip0_0_12">
<rect width="22" height="28.3" fill="white"/>
</clipPath>
</defs>
</svg>
